<?xml version="1.0" encoding="utf-8"?>
<!-- Generator: Adobe Illustrator 27.0.1, SVG Export Plug-In . SVG Version: 6.00 Build 0)  -->
<svg version="1.1" id="Слой_1" xmlns="http://www.w3.org/2000/svg" xmlns:xlink="http://www.w3.org/1999/xlink" x="0px" y="0px"
	 viewBox="0 0 1270 137.82" style="enable-background:new 0 0 1270 137.82;" xml:space="preserve">
<style type="text/css">
	.st0{fill:#FFFFFF;}
</style>
<g>
	<g>
		<path class="st0" d="M176.22,1.15v135.42c-7.86,0-15.09,0.28-22.27-0.18c-2.07-0.13-4.5-1.98-5.92-3.72
			C128.59,108.8,109.3,84.82,89.12,59.8v76.22H57.3V0.79c7.71,0,15.47-0.33,23.19,0.24c1.93,0.14,3.88,3.02,5.42,4.96
			c18.64,23.42,37.2,46.91,55.77,70.38c0.64,0.8,1.11,1.73,2.91,1.96V1.15H176.22z"/>
		<path class="st0" d="M321.49,1.03v135.53c-7.82,0-15.42,0.2-23-0.17c-1.67-0.08-3.58-1.9-4.81-3.41
			c-18.87-23.24-37.64-46.55-56.45-69.86c-0.64-0.78-1.34-1.53-2.88-3.3v76.27h-31.48V0.73c7.49,0,15.12-0.38,22.66,0.26
			c2.12,0.18,4.29,3.14,5.94,5.22c18.52,23.24,36.94,46.56,55.41,69.86c0.73,0.93,1.56,1.77,3.29,3.72V1.03H321.49z"/>
		<path class="st0" d="M1160.93,1.01v135.5c-7.91,0-15.88,0.18-23.84-0.17c-1.43-0.06-2.99-2.05-4.12-3.46
			c-18.71-23.09-37.36-46.24-56.04-69.37c-0.75-0.93-1.58-1.81-3.6-4.12v76.77h-31.13V0.69c7.48,0,14.87-0.32,22.22,0.22
			c2.02,0.14,4.22,2.55,5.71,4.43c18.66,23.4,37.22,46.88,55.82,70.34c0.78,0.99,1.67,1.9,3.44,3.89V1.01H1160.93z"/>
		<path class="st0" d="M956.72,0c-37.71-0.03-68.15,30.53-68.16,68.44c-0.03,38.16,30.32,69.38,67.42,69.38
			c37.26-0.01,67.88-31.15,67.84-69C1023.77,30.87,993.69,0.03,956.72,0z M991.43,73.81c-0.46,4.36-1.66,8.75-3.2,12.87
			c-5.47,14.57-17.3,22.99-31.75,23.05c-14.91,0.05-26.76-8.36-32.47-23.01c-7.55-19.4-2.5-42.17,12.45-52.25
			c5.54-3.74,10.79-6.39,19.42-6.39C980.04,27.31,993.98,50.18,991.43,73.81z"/>
		<path class="st0" d="M408.19,0c-37.71-0.03-68.15,30.53-68.16,68.44c-0.03,38.16,30.32,69.38,67.42,69.38
			c37.26-0.01,67.88-31.15,67.84-69C475.24,30.87,445.16,0.03,408.19,0z M442.9,73.81c-0.46,4.36-1.66,8.75-3.2,12.87
			c-5.47,14.57-17.3,22.99-31.75,23.05c-14.91,0.05-26.76-8.36-32.47-23.01c-7.55-19.4-2.5-42.17,12.45-52.25
			c5.54-3.74,10.79-6.39,19.42-6.39C431.51,27.31,445.45,50.18,442.9,73.81z"/>
		<path class="st0" d="M719.79,134.72c-15.78-43.37-31.53-86.75-47.56-130.03c-0.69-1.82-3.79-3.69-5.91-3.88
			c-5.91-0.52-11.91,0.14-17.83-0.28c-4.67-0.34-6.62,1.52-8.15,5.77c-14.94,41.42-30.09,82.77-45.16,124.15
			c-0.66,1.84-1.11,3.75-1.76,5.93h31.84c3-8.87,5.93-17.26,8.65-25.73c1.02-3.18,2.39-4.83,6.2-4.73
			c11.05,0.31,22.11,0.26,33.17,0.03c3.34-0.08,4.92,1.12,5.92,4.16c2.42,7.45,4.95,14.87,7.73,22.2c0.63,1.65,2.4,4.02,3.71,4.07
			c9.69,0.34,19.4,0.18,29.07,0.18C719.77,135.54,719.92,135.08,719.79,134.72z M640.7,84c5.29-15.56,10.41-30.63,16.05-47.23
			c5.5,16.66,10.42,31.61,15.58,47.23H640.7z"/>
		<path class="st0" d="M604.29,0.64c-0.77,2.56-1.17,4.35-1.81,6.05c-15.67,41.38-31.42,82.71-46.92,124.15
			c-1.71,4.57-3.95,6.26-8.76,5.83c-6.7-0.59-15,1.75-19.73-1.44c-4.48-3.01-5.28-11.53-7.64-17.66
			c-14.2-36.96-28.4-73.91-42.57-110.87c-0.61-1.57-1.07-3.19-2.02-6.02c10.83,0,20.77-0.23,30.67,0.24
			c1.51,0.08,3.51,3.14,4.21,5.18c9.43,27.87,18.66,55.81,27.95,83.72c0.59,1.79,1.22,3.55,2.3,6.68
			c4.18-12.59,7.99-23.97,11.72-35.37c6.06-18.5,12.12-37.01,18.04-55.56c1.1-3.43,2.64-5.18,6.65-5.04
			C585.43,0.85,594.51,0.64,604.29,0.64z"/>
		<polygon class="st0" points="823.31,1.1 823.31,28.23 782.79,28.23 782.79,136.27 751.25,136.27 751.25,28.54 710.37,28.54 
			710.37,1.1 		"/>
		<rect y="1.1" class="st0" width="31" height="135.3"/>
		<rect x="839.41" y="1.14" class="st0" width="30.95" height="135.22"/>
		<g>
			<path class="st0" d="M1205.4,35.96V9.64h60.16c2.08,0,3.76-1.68,3.76-3.76s-1.68-3.76-3.76-3.76h-62.55
				c-2.08,0-3.76,1.68-3.76,3.76v30.08c0,1.7,1.38,3.08,3.08,3.08C1204.02,39.03,1205.4,37.65,1205.4,35.96z"/>
			<path class="st0" d="M1267.39,68.93c1.56-0.5,2.61-1.95,2.61-3.58c0-0.01,0-0.01,0-0.02c-0.01-1.64-1.08-3.09-2.65-3.57
				l-63.92-19.82c-1.98-0.62-4.09,0.49-4.7,2.48c-0.62,1.98,0.49,4.09,2.48,4.7l24.36,7.55v17.78l-24.39,7.83
				c-1.6,0.51-2.61,1.99-2.61,3.58c0,0.38,0.06,0.77,0.18,1.15c0.63,1.98,2.75,3.07,4.73,2.43L1267.39,68.93z M1231.72,58.58
				l22.03,6.83l-22.03,7.07V58.58z"/>
			<path class="st0" d="M1234.99,128.72c0.88-0.84,1.67-1.76,2.35-2.73c2.29,2.58,6.21,4.98,12.84,4.98c7.95,0,12.5-2.82,14.93-5.19
				c3.11-3.04,4.22-6.75,4.22-9.21V99.19c0-0.17-0.02-0.33-0.04-0.49c0.03-0.18,0.04-0.35,0.04-0.54c0-2.08-1.68-3.76-3.76-3.76
				h-62.89c-2.08,0-3.76,1.68-3.76,3.76c0,0.12,0.01,0.24,0.02,0.36c-0.01,0.11-0.02,0.22-0.02,0.33v18.6
				c0,2.03,0.52,4.03,1.51,5.78c1.9,3.36,7.54,11.17,19,11.17C1227.35,134.39,1232.27,131.31,1234.99,128.72z M1250.18,124.82
				c-4.28,0-7.28-1.28-8.92-3.81c-1.28-1.97-1.33-4.06-1.33-4.05v-5.81v-9.23h23.24v14.65
				C1263.16,118.71,1260.78,124.82,1250.18,124.82z M1205.77,120.2c-0.47-0.83-0.72-1.78-0.72-2.75v-15.52h28.71v9.23v5.81v2
				c0,2.05-3.44,9.28-14.36,9.28C1211.5,128.24,1207.47,123.2,1205.77,120.2z"/>
		</g>
	</g>
</g>
</svg>
